<svg width="15" height="15" viewBox="0 0 15 15" fill="none" xmlns="http://www.w3.org/2000/svg">
<g id="calendar-sv">
<g id="calendar-sv_2">
<path d="M5.02148 5.02563C5.02148 5.57788 4.57373 6.02563 4.02148 6.02563C3.46924 6.02563 3.02148 5.57788 3.02148 5.02563C3.02148 4.47339 3.46924 4.02563 4.02148 4.02563C4.57373 4.02563 5.02148 4.47339 5.02148 5.02563Z" fill="#525252"/>
<path d="M4.02148 9.27563C4.57373 9.27563 5.02148 8.82788 5.02148 8.27563C5.02148 7.72339 4.57373 7.27563 4.02148 7.27563C3.46924 7.27563 3.02148 7.72339 3.02148 8.27563C3.02148 8.82788 3.46924 9.27563 4.02148 9.27563Z" fill="#525252"/>
<path d="M5.02148 11.2756C5.02148 11.8279 4.57373 12.2756 4.02148 12.2756C3.46924 12.2756 3.02148 11.8279 3.02148 11.2756C3.02148 10.7234 3.46924 10.2756 4.02148 10.2756C4.57373 10.2756 5.02148 10.7234 5.02148 11.2756Z" fill="#525252"/>
<path d="M7.52148 6.02563C8.07373 6.02563 8.52148 5.57788 8.52148 5.02563C8.52148 4.47339 8.07373 4.02563 7.52148 4.02563C6.96924 4.02563 6.52148 4.47339 6.52148 5.02563C6.52148 5.57788 6.96924 6.02563 7.52148 6.02563Z" fill="#525252"/>
<path d="M8.52148 8.27563C8.52148 8.82788 8.07373 9.27563 7.52148 9.27563C6.96924 9.27563 6.52148 8.82788 6.52148 8.27563C6.52148 7.72339 6.96924 7.27563 7.52148 7.27563C8.07373 7.27563 8.52148 7.72339 8.52148 8.27563Z" fill="#525252"/>
<path d="M7.52148 12.2756C8.07373 12.2756 8.52148 11.8279 8.52148 11.2756C8.52148 10.7234 8.07373 10.2756 7.52148 10.2756C6.96924 10.2756 6.52148 10.7234 6.52148 11.2756C6.52148 11.8279 6.96924 12.2756 7.52148 12.2756Z" fill="#525252"/>
<path d="M12.0215 5.02563C12.0215 5.57788 11.5737 6.02563 11.0215 6.02563C10.4692 6.02563 10.0215 5.57788 10.0215 5.02563C10.0215 4.47339 10.4692 4.02563 11.0215 4.02563C11.5737 4.02563 12.0215 4.47339 12.0215 5.02563Z" fill="#525252"/>
<path d="M11.0215 9.27563C11.5737 9.27563 12.0215 8.82788 12.0215 8.27563C12.0215 7.72339 11.5737 7.27563 11.0215 7.27563C10.4692 7.27563 10.0215 7.72339 10.0215 8.27563C10.0215 8.82788 10.4692 9.27563 11.0215 9.27563Z" fill="#525252"/>
<path fill-rule="evenodd" clip-rule="evenodd" d="M2.27148 0.275635C1.16699 0.275635 0.271484 1.17102 0.271484 2.27563V12.7756C0.271484 13.8802 1.16699 14.7756 2.27148 14.7756H12.7715C13.876 14.7756 14.7715 13.8802 14.7715 12.7756V2.27563C14.7715 1.17102 13.876 0.275635 12.7715 0.275635H2.27148ZM12.7715 2.77563H2.27148C2.07031 2.77563 1.88721 2.8551 1.75244 2.98438C1.60986 3.12085 1.52148 3.31287 1.52148 3.52563V12.7756C1.52148 13.1898 1.85742 13.5256 2.27148 13.5256H12.7715C13.1855 13.5256 13.5215 13.1898 13.5215 12.7756V3.52563C13.5215 3.11145 13.1855 2.77563 12.7715 2.77563Z" fill="#525252"/>
</g>
</g>
</svg>
