<svg width="4" height="17" viewBox="0 0 4 17" fill="none" xmlns="http://www.w3.org/2000/svg">
<g id="more-sv">
<path id="more-sv_2" d="M2 4.52563C3.1 4.52563 4 3.62563 4 2.52563C4 1.42563 3.1 0.525635 2 0.525635C0.9 0.525635 0 1.42563 0 2.52563C0 3.62563 0.9 4.52563 2 4.52563ZM2 6.52563C0.9 6.52563 0 7.42563 0 8.52563C0 9.62564 0.9 10.5256 2 10.5256C3.1 10.5256 4 9.62564 4 8.52563C4 7.42563 3.1 6.52563 2 6.52563ZM2 12.5256C0.9 12.5256 0 13.4256 0 14.5256C0 15.6256 0.9 16.5256 2 16.5256C3.1 16.5256 4 15.6256 4 14.5256C4 13.4256 3.1 12.5256 2 12.5256Z" fill="#525252"/>
</g>
</svg>
