<svg width="24" height="25" viewBox="0 0 24 25" fill="none" xmlns="http://www.w3.org/2000/svg">
<g id="settings">
<path id="Vector" d="M9.2502 22.0256L8.8502 18.8256C8.63353 18.7423 8.4292 18.6423 8.2372 18.5256C8.0452 18.409 7.85786 18.284 7.6752 18.1506L4.7002 19.4006L1.9502 14.6506L4.5252 12.7006C4.50853 12.584 4.5002 12.4713 4.5002 12.3626V11.6886C4.5002 11.58 4.50853 11.4673 4.5252 11.3506L1.9502 9.40063L4.7002 4.65063L7.6752 5.90063C7.85853 5.7673 8.0502 5.6423 8.2502 5.52563C8.4502 5.40897 8.6502 5.30897 8.8502 5.22563L9.2502 2.02563H14.7502L15.1502 5.22563C15.3669 5.30897 15.5712 5.40897 15.7632 5.52563C15.9552 5.6423 16.1425 5.7673 16.3252 5.90063L19.3002 4.65063L22.0502 9.40063L19.4752 11.3506C19.4919 11.4673 19.5002 11.58 19.5002 11.6886V12.3626C19.5002 12.4713 19.4835 12.584 19.4502 12.7006L22.0252 14.6506L19.2752 19.4006L16.3252 18.1506C16.1419 18.284 15.9502 18.409 15.7502 18.5256C15.5502 18.6423 15.3502 18.7423 15.1502 18.8256L14.7502 22.0256H9.2502ZM12.0502 15.5256C13.0169 15.5256 13.8419 15.184 14.5252 14.5006C15.2085 13.8173 15.5502 12.9923 15.5502 12.0256C15.5502 11.059 15.2085 10.234 14.5252 9.55063C13.8419 8.8673 13.0169 8.52563 12.0502 8.52563C11.0669 8.52563 10.2375 8.8673 9.5622 9.55063C8.88686 10.234 8.54953 11.059 8.5502 12.0256C8.5502 12.9923 8.88753 13.8173 9.5622 14.5006C10.2369 15.184 11.0662 15.5256 12.0502 15.5256ZM12.0502 13.5256C11.6335 13.5256 11.2792 13.3796 10.9872 13.0876C10.6952 12.7956 10.5495 12.4416 10.5502 12.0256C10.5502 11.609 10.6962 11.2546 10.9882 10.9626C11.2802 10.6706 11.6342 10.525 12.0502 10.5256C12.4669 10.5256 12.8212 10.6716 13.1132 10.9636C13.4052 11.2556 13.5509 11.6096 13.5502 12.0256C13.5502 12.4423 13.4042 12.7966 13.1122 13.0886C12.8202 13.3806 12.4662 13.5263 12.0502 13.5256ZM11.0002 20.0256H12.9752L13.3252 17.3756C13.8419 17.2423 14.3212 17.0463 14.7632 16.7876C15.2052 16.529 15.6092 16.2166 15.9752 15.8506L18.4502 16.8756L19.4252 15.1756L17.2752 13.5506C17.3585 13.3173 17.4169 13.0716 17.4502 12.8136C17.4835 12.5556 17.5002 12.293 17.5002 12.0256C17.5002 11.759 17.4835 11.4966 17.4502 11.2386C17.4169 10.9806 17.3585 10.7346 17.2752 10.5006L19.4252 8.87564L18.4502 7.17563L15.9752 8.22563C15.6085 7.8423 15.2045 7.52163 14.7632 7.26363C14.3219 7.00563 13.8425 6.80963 13.3252 6.67563L13.0002 4.02563H11.0252L10.6752 6.67563C10.1585 6.80897 9.67953 7.00497 9.2382 7.26363C8.79686 7.5223 8.39253 7.83463 8.0252 8.20063L5.5502 7.17563L4.5752 8.87564L6.72519 10.4756C6.64186 10.7256 6.58353 10.9756 6.5502 11.2256C6.51686 11.4756 6.5002 11.7423 6.5002 12.0256C6.5002 12.2923 6.51686 12.5506 6.5502 12.8006C6.58353 13.0506 6.64186 13.3006 6.72519 13.5506L4.5752 15.1756L5.5502 16.8756L8.0252 15.8256C8.39186 16.209 8.7962 16.53 9.2382 16.7886C9.6802 17.0473 10.1592 17.243 10.6752 17.3756L11.0002 20.0256Z" fill="#F9F9F9"/>
</g>
</svg>
