<svg width="17" height="18" viewBox="0 0 17 18" fill="none" xmlns="http://www.w3.org/2000/svg">
<g id="share-sv">
<path id="share-sv_2" d="M13.7217 17.0256C13.0133 17.0256 12.4113 16.7777 11.9154 16.2819C11.4196 15.7861 11.1717 15.184 11.1717 14.4756C11.1717 14.3765 11.1788 14.2736 11.1929 14.1671C11.2071 14.0606 11.2283 13.9651 11.2567 13.8806L5.26418 10.3956C5.02335 10.6081 4.75418 10.7747 4.45668 10.8954C4.15918 11.0161 3.84751 11.0762 3.52168 11.0756C2.81335 11.0756 2.21126 10.8277 1.71543 10.3319C1.2196 9.83605 0.97168 9.23397 0.97168 8.52563C0.97168 7.8173 1.2196 7.21522 1.71543 6.71939C2.21126 6.22355 2.81335 5.97564 3.52168 5.97564C3.84751 5.97564 4.15918 6.03598 4.45668 6.15669C4.75418 6.27739 5.02335 6.4437 5.26418 6.65563L11.2567 3.17063C11.2283 3.08563 11.2071 2.99015 11.1929 2.88418C11.1788 2.77822 11.1717 2.67537 11.1717 2.57563C11.1717 1.8673 11.4196 1.26522 11.9154 0.769385C12.4113 0.273551 13.0133 0.0256348 13.7217 0.0256348C14.43 0.0256348 15.0321 0.273551 15.5279 0.769385C16.0238 1.26522 16.2717 1.8673 16.2717 2.57563C16.2717 3.28397 16.0238 3.88605 15.5279 4.38189C15.0321 4.87772 14.43 5.12564 13.7217 5.12564C13.3958 5.12564 13.0842 5.06557 12.7867 4.94544C12.4892 4.8253 12.22 4.6587 11.9792 4.44563L5.98668 7.93063C6.01501 8.01564 6.03626 8.1114 6.05043 8.21793C6.0646 8.32447 6.07168 8.42704 6.07168 8.52563C6.07168 8.6248 6.0646 8.72765 6.05043 8.83418C6.03626 8.94072 6.01501 9.0362 5.98668 9.12064L11.9792 12.6056C12.22 12.3931 12.4892 12.2268 12.7867 12.1067C13.0842 11.9866 13.3958 11.9262 13.7217 11.9256C14.43 11.9256 15.0321 12.1736 15.5279 12.6694C16.0238 13.1652 16.2717 13.7673 16.2717 14.4756C16.2717 15.184 16.0238 15.7861 15.5279 16.2819C15.0321 16.7777 14.43 17.0256 13.7217 17.0256ZM13.7217 3.42563C13.9625 3.42563 14.1645 3.34403 14.3277 3.18083C14.4909 3.01763 14.5722 2.8159 14.5717 2.57563C14.5717 2.3348 14.4901 2.13279 14.3269 1.96958C14.1637 1.80638 13.9619 1.72507 13.7217 1.72563C13.4808 1.72563 13.2788 1.80723 13.1156 1.97043C12.9524 2.13363 12.8711 2.33537 12.8717 2.57563C12.8717 2.81647 12.9533 3.01848 13.1165 3.18168C13.2797 3.34488 13.4814 3.4262 13.7217 3.42563ZM3.52168 9.37564C3.76251 9.37564 3.96453 9.29403 4.12773 9.13083C4.29093 8.96764 4.37225 8.7659 4.37168 8.52563C4.37168 8.2848 4.29008 8.08278 4.12688 7.91958C3.96368 7.75638 3.76195 7.67507 3.52168 7.67563C3.28085 7.67563 3.07883 7.75724 2.91563 7.92043C2.75243 8.08364 2.67111 8.28537 2.67168 8.52563C2.67168 8.76647 2.75328 8.96848 2.91648 9.13169C3.07968 9.29489 3.28141 9.3762 3.52168 9.37564ZM13.7217 15.3256C13.9625 15.3256 14.1645 15.244 14.3277 15.0808C14.4909 14.9176 14.5722 14.7159 14.5717 14.4756C14.5717 14.2348 14.4901 14.0328 14.3269 13.8696C14.1637 13.7064 13.9619 13.6251 13.7217 13.6256C13.4808 13.6256 13.2788 13.7072 13.1156 13.8704C12.9524 14.0336 12.8711 14.2354 12.8717 14.4756C12.8717 14.7165 12.9533 14.9185 13.1165 15.0817C13.2797 15.2449 13.4814 15.3262 13.7217 15.3256Z" fill="#525252"/>
</g>
</svg>
