<svg width="17" height="18" viewBox="0 0 17 18" fill="none" xmlns="http://www.w3.org/2000/svg">
<g id="share-sv">
<path id="share-sv_2" d="M13.6577 17.0256C12.9494 17.0256 12.3473 16.7777 11.8515 16.2819C11.3556 15.7861 11.1077 15.184 11.1077 14.4756C11.1077 14.3765 11.1148 14.2736 11.129 14.1671C11.1431 14.0606 11.1644 13.9651 11.1927 13.8806L5.20022 10.3956C4.95938 10.6081 4.69021 10.7747 4.39271 10.8954C4.09521 11.0161 3.78355 11.0762 3.45772 11.0756C2.74938 11.0756 2.1473 10.8277 1.65146 10.3319C1.15563 9.83605 0.907715 9.23397 0.907715 8.52563C0.907715 7.8173 1.15563 7.21522 1.65146 6.71939C2.1473 6.22355 2.74938 5.97564 3.45772 5.97564C3.78355 5.97564 4.09521 6.03598 4.39271 6.15669C4.69021 6.27739 4.95938 6.4437 5.20022 6.65563L11.1927 3.17063C11.1644 3.08563 11.1431 2.99015 11.129 2.88418C11.1148 2.77822 11.1077 2.67537 11.1077 2.57563C11.1077 1.8673 11.3556 1.26522 11.8515 0.769385C12.3473 0.273551 12.9494 0.0256348 13.6577 0.0256348C14.366 0.0256348 14.9681 0.273551 15.464 0.769385C15.9598 1.26522 16.2077 1.8673 16.2077 2.57563C16.2077 3.28397 15.9598 3.88605 15.464 4.38189C14.9681 4.87772 14.366 5.12564 13.6577 5.12564C13.3319 5.12564 13.0202 5.06557 12.7227 4.94544C12.4252 4.8253 12.156 4.6587 11.9152 4.44563L5.92271 7.93063C5.95105 8.01564 5.9723 8.1114 5.98647 8.21793C6.00063 8.32447 6.00771 8.42704 6.00772 8.52563C6.00772 8.6248 6.00063 8.72765 5.98647 8.83418C5.9723 8.94072 5.95105 9.0362 5.92271 9.12064L11.9152 12.6056C12.156 12.3931 12.4252 12.2268 12.7227 12.1067C13.0202 11.9866 13.3319 11.9262 13.6577 11.9256C14.366 11.9256 14.9681 12.1736 15.464 12.6694C15.9598 13.1652 16.2077 13.7673 16.2077 14.4756C16.2077 15.184 15.9598 15.7861 15.464 16.2819C14.9681 16.7777 14.366 17.0256 13.6577 17.0256ZM13.6577 3.42563C13.8985 3.42563 14.1006 3.34403 14.2638 3.18083C14.427 3.01763 14.5083 2.8159 14.5077 2.57563C14.5077 2.3348 14.4261 2.13279 14.2629 1.96958C14.0997 1.80638 13.898 1.72507 13.6577 1.72563C13.4169 1.72563 13.2149 1.80723 13.0517 1.97043C12.8885 2.13363 12.8071 2.33537 12.8077 2.57563C12.8077 2.81647 12.8893 3.01848 13.0525 3.18168C13.2157 3.34488 13.4174 3.4262 13.6577 3.42563ZM3.45772 9.37564C3.69855 9.37564 3.90056 9.29403 4.06376 9.13083C4.22696 8.96764 4.30828 8.7659 4.30771 8.52563C4.30771 8.2848 4.22611 8.08278 4.06291 7.91958C3.89971 7.75638 3.69798 7.67507 3.45772 7.67563C3.21688 7.67563 3.01487 7.75724 2.85167 7.92043C2.68846 8.08364 2.60715 8.28537 2.60771 8.52563C2.60771 8.76647 2.68931 8.96848 2.85251 9.13169C3.01571 9.29489 3.21745 9.3762 3.45772 9.37564ZM13.6577 15.3256C13.8985 15.3256 14.1006 15.244 14.2638 15.0808C14.427 14.9176 14.5083 14.7159 14.5077 14.4756C14.5077 14.2348 14.4261 14.0328 14.2629 13.8696C14.0997 13.7064 13.898 13.6251 13.6577 13.6256C13.4169 13.6256 13.2149 13.7072 13.0517 13.8704C12.8885 14.0336 12.8071 14.2354 12.8077 14.4756C12.8077 14.7165 12.8893 14.9185 13.0525 15.0817C13.2157 15.2449 13.4174 15.3262 13.6577 15.3256Z" fill="#1D9BF0"/>
</g>
</svg>
